<?xml version="1.0" encoding="utf-8"?>
<!-- Generator: Adobe Illustrator 24.1.3, SVG Export Plug-In . SVG Version: 6.00 Build 0)  -->
<svg version="1.1" id="Layer_1" xmlns="http://www.w3.org/2000/svg" xmlns:xlink="http://www.w3.org/1999/xlink" x="0px" y="0px"
	 viewBox="0 0 166.32 35.77" style="enable-background:new 0 0 166.32 35.77;" xml:space="preserve">
<style type="text/css">
	.st0{fill:#08232A;}
</style>
<g>
	<g transform="translate(400.091726, 434.616884)">
	</g>
</g>
<g id="g82963" transform="matrix(2.3536118,0,0,2.3536118,-574.80438,-265.98087)">
	<path id="path78333" class="st0" d="M295.85,126.78c-0.03,0-0.05,0.02-0.07,0.03c-0.42,0.32-0.8,0.48-1.15,0.48
		c-0.45,0-0.82-0.19-1.13-0.56c-0.31-0.38-0.46-0.85-0.46-1.4l0.01-0.11h1.83l0.33,0.01l0.36,0c0.21,0,0.31-0.05,0.31-0.16
		c0-0.07-0.04-0.2-0.12-0.39s-0.16-0.34-0.24-0.45c-0.32-0.45-0.76-0.68-1.3-0.68c-0.49,0-0.93,0.21-1.3,0.64
		c-0.37,0.42-0.55,0.91-0.55,1.47c0,0.59,0.18,1.09,0.54,1.49c0.36,0.4,0.8,0.6,1.33,0.6c0.47,0,0.91-0.17,1.33-0.49
		c0.23-0.18,0.34-0.32,0.34-0.41C295.92,126.8,295.89,126.78,295.85,126.78z M293.39,124.09c0.18-0.22,0.4-0.32,0.66-0.32
		c0.25,0,0.49,0.11,0.71,0.33c0.22,0.22,0.33,0.45,0.33,0.7c0,0.11-0.13,0.16-0.39,0.16h-1.64
		C293.1,124.59,293.22,124.3,293.39,124.09z"/>
	<path id="path78335" class="st0" d="M290.36,123.56c-0.37,0-0.67,0.11-0.92,0.32c-0.25,0.21-0.37,0.48-0.37,0.79
		c0,0.26,0.08,0.48,0.24,0.66c0.16,0.18,0.44,0.35,0.83,0.52l0.43,0.19c0.36,0.16,0.54,0.41,0.54,0.74c0,0.22-0.08,0.39-0.23,0.53
		c-0.15,0.14-0.34,0.21-0.58,0.21c-0.27,0-0.51-0.1-0.71-0.3c-0.19-0.2-0.32-0.48-0.39-0.83c-0.02-0.1-0.06-0.15-0.12-0.15
		c-0.06,0-0.09,0.05-0.11,0.14l-0.01,0.15l0.01,0.62l0,0.21c0.01,0.07,0.05,0.11,0.12,0.12l0.13,0.01c0.02,0,0.07,0.02,0.14,0.05
		c0.31,0.15,0.61,0.23,0.87,0.23c0.38,0,0.7-0.13,0.97-0.39c0.27-0.26,0.41-0.58,0.41-0.94c0-0.3-0.08-0.53-0.24-0.71
		c-0.16-0.18-0.44-0.35-0.84-0.5c-0.41-0.16-0.68-0.29-0.81-0.4c-0.13-0.11-0.2-0.25-0.2-0.43c0-0.17,0.06-0.31,0.18-0.42
		c0.13-0.11,0.29-0.16,0.48-0.16c0.49,0,0.82,0.25,1,0.74c0.03,0.09,0.07,0.13,0.11,0.13c0.07,0,0.11-0.07,0.11-0.19
		c0-0.06,0-0.12-0.01-0.18l-0.02-0.19c-0.01-0.05-0.01-0.09-0.01-0.14v-0.08c0-0.07-0.04-0.12-0.13-0.15l-0.21-0.07
		C290.83,123.59,290.61,123.56,290.36,123.56L290.36,123.56z"/>
	<path id="path78337" class="st0" d="M288.46,127.38c-0.02,0-0.06,0.01-0.11,0.03c-0.03,0-0.07,0.01-0.11,0.01
		c-0.17,0-0.3-0.06-0.37-0.19c-0.07-0.13-0.11-0.35-0.11-0.65v-1.9c0-0.36-0.12-0.63-0.37-0.82c-0.24-0.2-0.58-0.3-1.02-0.3
		c-0.48,0-0.87,0.16-1.16,0.47c-0.22,0.23-0.33,0.45-0.33,0.65c0,0.08,0.06,0.15,0.19,0.21c0.13,0.06,0.26,0.1,0.42,0.1
		c0.07,0,0.1-0.03,0.1-0.09c0-0.04-0.02-0.09-0.03-0.15c-0.04-0.14-0.06-0.26-0.06-0.37c0-0.36,0.21-0.54,0.64-0.54
		c0.31,0,0.57,0.1,0.76,0.29c0.14,0.14,0.21,0.4,0.21,0.77v0.6c-0.81,0.12-1.38,0.29-1.72,0.49c-0.34,0.2-0.51,0.49-0.51,0.87
		c0,0.28,0.09,0.49,0.27,0.66c0.18,0.16,0.42,0.24,0.73,0.24c0.4,0,0.84-0.18,1.3-0.53c0.21,0.33,0.45,0.49,0.72,0.49
		c0.14,0,0.29-0.03,0.44-0.09c0.15-0.06,0.23-0.12,0.23-0.18C288.55,127.4,288.52,127.38,288.46,127.38z M287.09,126.66
		c0,0.25-0.06,0.42-0.17,0.54c-0.18,0.17-0.41,0.26-0.68,0.26c-0.22,0-0.4-0.06-0.54-0.19c-0.13-0.14-0.19-0.31-0.19-0.54
		c0-0.28,0.14-0.52,0.41-0.7c0.28-0.19,0.66-0.3,1.17-0.35V126.66z"/>
	<path id="path78339" class="st0" d="M280.59,120.53c-0.03,0-0.06,0.01-0.1,0.03l-0.38,0.18c-0.25,0.12-0.48,0.2-0.68,0.25
		c-0.07,0.02-0.11,0.05-0.11,0.1c0,0.03,0.01,0.05,0.03,0.06c0.02,0.01,0.04,0.01,0.07,0.01l0.25-0.01
		c0.22-0.01,0.32,0.18,0.32,0.58v5.06c0,0.28-0.02,0.45-0.07,0.53c-0.04,0.07-0.16,0.14-0.35,0.2c-0.08,0.02-0.11,0.06-0.11,0.12
		c0,0.05,0.04,0.08,0.12,0.08c0.04,0,0.12-0.01,0.22-0.01c0.24-0.02,0.43-0.03,0.56-0.03c0.38,0,0.62,0.01,0.74,0.02
		c0.14,0.02,0.23,0.02,0.27,0.02c0.07,0,0.11-0.03,0.11-0.08c0-0.06-0.06-0.11-0.17-0.12c-0.29-0.04-0.47-0.11-0.54-0.2
		s-0.11-0.31-0.11-0.64v-1.88c0-0.21,0.11-0.41,0.33-0.58c0.22-0.17,0.47-0.26,0.74-0.26c0.35,0,0.63,0.12,0.84,0.36
		c0.21,0.24,0.32,0.56,0.32,0.98v1.62l-0.01,0.15c0,0.15-0.02,0.24-0.06,0.3c-0.04,0.05-0.14,0.1-0.31,0.16
		c-0.07,0.03-0.1,0.06-0.1,0.1c0,0.06,0.05,0.09,0.14,0.09c0.02,0,0.07-0.01,0.15-0.01c0.14-0.02,0.35-0.03,0.63-0.03
		c0.17,0,0.38,0.01,0.62,0.02c0.12,0.01,0.2,0.01,0.24,0.01c0.09,0,0.13-0.03,0.13-0.09c0-0.06-0.04-0.09-0.13-0.11
		c-0.26-0.04-0.43-0.11-0.51-0.2c-0.08-0.09-0.12-0.26-0.12-0.5v-1.54c0-0.51-0.14-0.92-0.43-1.23c-0.28-0.31-0.65-0.47-1.11-0.47
		c-0.49,0-0.95,0.26-1.36,0.77V121c0-0.11,0-0.19,0-0.25c0.01-0.06,0.01-0.1,0.01-0.12C280.67,120.57,280.64,120.53,280.59,120.53
		L280.59,120.53z"/>
	<g id="g79166" transform="translate(111.85262,0.99218753)">
		<path id="path78341" class="st0" d="M157.64,114.27c-0.28,0.48-0.46,0.82-0.55,1l-0.43,0.93l-0.5,1.02
			c-0.03,0.06-0.16,0.36-0.41,0.91c-0.1,0.23-0.19,0.41-0.26,0.56c-0.04,0.09-0.07,0.15-0.09,0.18c-0.06,0.15-0.13,0.23-0.21,0.23
			c-0.08,0-0.15-0.08-0.22-0.24c-0.01-0.03-0.06-0.12-0.14-0.27l-0.1-0.2l-1.82-3.94l-0.11,2.4c-0.01,0.2-0.01,0.59-0.01,1.18
			c0,0.57,0.2,0.88,0.6,0.95c0.2,0.03,0.3,0.08,0.3,0.15c0,0.07-0.05,0.11-0.14,0.11c-0.06,0-0.12,0-0.18-0.01
			c-0.36-0.03-0.64-0.05-0.84-0.05c-0.24,0-0.46,0.01-0.68,0.04c-0.06,0.01-0.11,0.01-0.15,0.01c-0.1,0-0.15-0.04-0.15-0.11
			c0-0.06,0.04-0.09,0.12-0.11c0.24-0.06,0.4-0.17,0.5-0.33c0.09-0.17,0.15-0.45,0.17-0.84l0.07-1.41c0.05-1.02,0.07-1.66,0.07-1.93
			c0-0.58-0.08-1-0.23-1.28c-0.15-0.28-0.41-0.45-0.76-0.51c-0.1-0.02-0.15-0.06-0.15-0.12c0-0.07,0.04-0.11,0.12-0.11
			c0.03,0,0.08,0,0.16,0.01c0.05,0.01,0.16,0.01,0.33,0.01c0.27,0,0.43,0,0.5-0.01c0.07-0.01,0.13-0.01,0.18-0.01
			c0.14,0,0.26,0.1,0.35,0.31l0.05,0.11l2.02,4.36l0.25,0.5c0.04,0.08,0.06,0.13,0.08,0.13c0.02,0,0.04-0.03,0.07-0.09l0.06-0.13
			l0.04-0.1l2.28-4.88c0.05-0.1,0.08-0.17,0.11-0.19c0.03-0.03,0.07-0.04,0.13-0.04c0.03,0,0.1,0.01,0.21,0.02c0.04,0,0.1,0,0.16,0
			c0.2,0,0.37-0.01,0.49-0.02c0.06,0,0.11-0.01,0.14-0.01c0.06,0,0.1,0.03,0.1,0.1c0,0.06-0.03,0.1-0.1,0.12l-0.21,0.05
			c-0.16,0.04-0.28,0.14-0.35,0.31c-0.06,0.16-0.1,0.43-0.1,0.8l0.03,1.17l0.09,2.64l0.02,0.61c0,0.25,0.05,0.42,0.14,0.53
			c0.09,0.11,0.26,0.18,0.5,0.21c0.17,0.03,0.26,0.07,0.26,0.13c0,0.06-0.06,0.1-0.18,0.1c-0.04,0-0.08,0-0.12,0l-0.38-0.04
			c-0.13-0.01-0.26-0.02-0.41-0.02c-0.1,0-0.26,0.01-0.48,0.02c-0.34,0.02-0.53,0.02-0.58,0.02c-0.09,0-0.14-0.03-0.14-0.09
			c0-0.05,0.04-0.09,0.12-0.11c0.19-0.05,0.32-0.14,0.38-0.25s0.1-0.32,0.1-0.61l-0.02-0.79L157.64,114.27z"/>
		<path id="path78343" class="st0" d="M163.76,118.91c-0.02,0-0.06,0.01-0.11,0.03c-0.03,0-0.07,0.01-0.12,0.01
			c-0.17,0-0.29-0.06-0.37-0.19c-0.07-0.13-0.11-0.34-0.11-0.65v-1.9c0-0.36-0.12-0.63-0.36-0.83c-0.24-0.2-0.59-0.29-1.02-0.29
			c-0.48,0-0.87,0.16-1.16,0.47c-0.22,0.23-0.33,0.45-0.33,0.65c0,0.08,0.06,0.15,0.19,0.21c0.12,0.06,0.26,0.1,0.42,0.1
			c0.07,0,0.1-0.03,0.1-0.09c0-0.04-0.02-0.1-0.03-0.15c-0.04-0.14-0.06-0.26-0.06-0.37c0-0.36,0.21-0.54,0.64-0.54
			c0.31,0,0.57,0.1,0.76,0.29c0.14,0.14,0.21,0.4,0.21,0.77v0.6c-0.81,0.12-1.39,0.28-1.73,0.49c-0.34,0.2-0.51,0.49-0.51,0.86
			c0,0.28,0.09,0.5,0.27,0.66c0.18,0.16,0.42,0.24,0.73,0.24c0.4,0,0.83-0.18,1.3-0.54c0.21,0.33,0.45,0.49,0.72,0.49
			c0.14,0,0.29-0.03,0.44-0.09c0.15-0.06,0.23-0.12,0.23-0.18C163.84,118.93,163.81,118.91,163.76,118.91z M162.38,118.18
			c0,0.25-0.06,0.43-0.17,0.54c-0.19,0.18-0.41,0.27-0.68,0.27c-0.23,0-0.4-0.06-0.54-0.2c-0.13-0.13-0.2-0.31-0.2-0.53
			c0-0.28,0.14-0.52,0.42-0.7c0.27-0.18,0.66-0.3,1.17-0.34V118.18z"/>
		<path id="path78345" class="st0" d="M166.18,118.45l0.82-1.72c0.16-0.36,0.25-0.66,0.25-0.91c0-0.22-0.16-0.36-0.47-0.41
			c-0.09-0.01-0.13-0.05-0.13-0.1c0-0.07,0.04-0.1,0.13-0.1c0.04,0,0.1,0,0.18,0.01c0.07,0.01,0.19,0.01,0.35,0.01
			c0.33,0,0.55,0,0.66-0.01c0.09-0.01,0.15-0.01,0.18-0.01c0.08,0,0.11,0.03,0.11,0.08c0,0.04-0.07,0.09-0.2,0.14
			c-0.13,0.05-0.26,0.2-0.37,0.45l-1.58,3.3c-0.04,0.08-0.09,0.12-0.16,0.12c-0.08,0-0.14-0.05-0.18-0.14l-1.41-3.19
			c-0.13-0.29-0.31-0.48-0.53-0.56c-0.07-0.03-0.1-0.06-0.1-0.1c0-0.07,0.05-0.1,0.15-0.1c0.03,0,0.06,0,0.11,0.01
			c0.16,0.02,0.45,0.03,0.88,0.03c0.2,0,0.33,0,0.41-0.01c0.11-0.01,0.18-0.01,0.22-0.01c0.07,0,0.11,0.03,0.11,0.1
			c0,0.05-0.05,0.08-0.14,0.09c-0.29,0.04-0.44,0.13-0.44,0.28c0,0.08,0.03,0.19,0.09,0.33L166.18,118.45z"/>
	</g>
	<path id="path78347" class="st0" d="M275.48,120.88c-1,0-1.82,0.34-2.48,1c-0.66,0.67-0.99,1.5-0.99,2.51s0.32,1.82,0.96,2.44
		c0.64,0.62,1.48,0.93,2.52,0.93c0.9,0,1.72-0.24,2.47-0.71c0.14-0.09,0.22-0.18,0.23-0.26l0.02-0.09l0.11-0.59l0.02-0.11l0.01-0.05
		c0-0.06-0.03-0.1-0.08-0.09c-0.05,0-0.11,0.09-0.19,0.26c-0.18,0.37-0.51,0.68-0.98,0.94c-0.47,0.26-0.95,0.39-1.43,0.39
		c-0.83,0-1.51-0.32-2.04-0.96c-0.53-0.64-0.79-1.47-0.79-2.48c0-0.88,0.24-1.57,0.71-2.08c0.48-0.51,1.13-0.76,1.95-0.76
		c1.04,0,1.86,0.53,2.46,1.59c0.08,0.14,0.14,0.21,0.17,0.2c0.03,0,0.06-0.02,0.07-0.05l0.01-0.05l-0.01-0.12
		c0.01-0.05-0.27-1.03-0.49-1.19l-0.07-0.07l-0.08-0.03l-0.19-0.1C276.79,121.03,276.16,120.88,275.48,120.88L275.48,120.88z"/>
	<g id="g79289" transform="translate(-0.76067705)">
		<path id="rect78455" class="st0" d="M267.12,121.98l1.08,0.67h4.49c0.13-0.24,0.29-0.47,0.48-0.67H267.12z"/>
		<path id="path78956" class="st0" d="M268.35,123.98l1.08,0.67h2.87c0-0.09-0.01-0.17-0.01-0.26c0-0.14,0.01-0.28,0.02-0.41H268.35
			z"/>
		<path id="path78977" class="st0" d="M269.16,125.98l1.08,0.67h2.83c-0.18-0.21-0.33-0.43-0.45-0.67H269.16z"/>
	</g>
</g>
</svg>
