<?xml version="1.0" encoding="utf-8"?>
<!-- Generator: Adobe Illustrator 24.1.3, SVG Export Plug-In . SVG Version: 6.00 Build 0)  -->
<svg version="1.1" id="Layer_1" xmlns="http://www.w3.org/2000/svg" xmlns:xlink="http://www.w3.org/1999/xlink" x="0px" y="0px"
	 viewBox="0 0 1800 2160" style="enable-background:new 0 0 1800 2160;" xml:space="preserve">
<style type="text/css">
	.st0{fill:#07232B;}
</style>
<g id="g82963" transform="matrix(2.3536118,0,0,2.3536118,-574.80438,-265.98087)">
	<path id="path78333" class="st0" d="M965.02,639.95c-11.42,0-21.38,4.89-29.89,14.66c-8.51,9.7-12.76,21.04-12.76,34.03
		c0,13.66,4.1,25.11,12.31,34.36c8.28,9.25,18.51,13.88,30.67,13.88c10.82,0,21.08-3.81,30.78-11.42c5.22-4.1,7.84-7.27,7.84-9.51
		c0-1.27-0.52-1.86-1.57-1.79c-0.52,0.08-1.09,0.34-1.68,0.78c-9.55,7.31-18.39,10.96-26.53,10.96c-10.3,0-18.99-4.32-26.08-12.98
		c-7.01-8.73-10.52-19.48-10.52-32.24l0.12-2.46h42.31l7.61,0.22l8.29,0.11c4.85,0,7.27-1.24,7.27-3.7c0-1.72-0.94-4.73-2.8-9.06
		c-1.87-4.33-3.7-7.77-5.49-10.3C987.44,645.13,977.49,639.95,965.02,639.95L965.02,639.95z M960.99,644.87
		c5.9,0,11.34,2.5,16.34,7.49c5.07,5,7.61,10.41,7.61,16.23c0,2.39-2.95,3.58-8.84,3.58h-37.95c0.97-8.43,3.47-15.07,7.5-19.92
		C949.76,647.33,954.87,644.87,960.99,644.87L960.99,644.87z"/>
	<path id="path78335" class="st0" d="M875.8,639.95c-8.43,0-15.52,2.46-21.27,7.38c-5.75,4.93-8.62,10.98-8.62,18.14
		c0,5.97,1.87,11.04,5.6,15.22c3.73,4.1,10.08,8.1,19.03,11.98l9.85,4.37c8.36,3.73,12.54,9.4,12.54,17.01c0,5-1.76,9.1-5.27,12.31
		c-3.43,3.21-7.87,4.82-13.32,4.82c-6.34,0-11.79-2.31-16.34-6.94c-4.48-4.63-7.5-11.05-9.06-19.26c-0.45-2.31-1.34-3.43-2.69-3.36
		c-1.34,0.08-2.17,1.12-2.47,3.13l-0.23,3.36l0.34,14.33l0.1,4.82c0.15,1.72,1.08,2.65,2.8,2.8l2.91,0.33
		c0.45,0,1.53,0.41,3.24,1.23c7.24,3.51,13.96,5.26,20.15,5.26c8.66,0,16.09-2.99,22.28-8.96c6.27-6.04,9.4-13.28,9.4-21.72
		c0-6.87-1.83-12.31-5.49-16.34c-3.58-4.1-10.04-7.98-19.37-11.63c-9.4-3.66-15.63-6.75-18.69-9.29c-3.06-2.54-4.59-5.86-4.59-9.97
		c0-3.88,1.42-7.09,4.25-9.63c2.91-2.54,6.6-3.8,11.08-3.8c11.27,0,18.95,5.67,23.06,17.01c0.75,2.01,1.57,2.99,2.47,2.91
		c1.64-0.08,2.47-1.57,2.47-4.48c0-1.27-0.1-2.69-0.33-4.25l-0.45-4.37c-0.15-1.04-0.23-2.09-0.23-3.13v-1.79
		c0-1.57-1.01-2.72-3.02-3.47l-4.92-1.68C886.77,640.72,881.7,639.95,875.8,639.95L875.8,639.95z"/>
	<path id="path78337" class="st0" d="M783.79,639.95c-11.12,0-20.04,3.61-26.75,10.85c-5,5.37-7.5,10.38-7.5,15.01
		c0,1.79,1.42,3.43,4.25,4.92c2.91,1.49,6.12,2.24,9.63,2.24c1.57,0,2.31-0.67,2.24-2.02c-0.07-1.04-0.34-2.23-0.78-3.58
		c-0.97-3.21-1.45-6.04-1.45-8.51c0-8.36,4.92-12.54,14.77-12.54c7.31,0,13.13,2.24,17.46,6.72c3.21,3.28,4.82,9.22,4.82,17.8v13.88
		c-18.66,2.84-31.9,6.64-39.74,11.41c-7.84,4.7-11.76,11.35-11.76,19.93c0,6.34,2.05,11.41,6.16,15.22c4.18,3.73,9.78,5.6,16.79,5.6
		c9.25,0,19.29-4.1,30.11-12.31c4.93,7.54,10.45,11.31,16.57,11.31c3.28,0,6.64-0.67,10.07-2.02c3.43-1.42,5.18-2.8,5.26-4.15
		c0.07-1.12-0.52-1.64-1.79-1.56c-0.45,0-1.34,0.18-2.69,0.56c-0.67,0.15-1.57,0.22-2.69,0.22c-3.95,0-6.79-1.45-8.51-4.36
		c-1.64-2.98-2.47-7.95-2.47-14.89V665.8c0-8.21-2.8-14.55-8.39-19.03C801.82,642.22,793.94,639.95,783.79,639.95L783.79,639.95z
		 M800.47,689.08v22.28c0,5.67-1.31,9.81-3.92,12.43c-4.25,4.1-9.51,6.16-15.78,6.16c-5.15,0-9.25-1.5-12.31-4.48
		c-2.99-3.06-4.48-7.16-4.48-12.31c0-6.57,3.18-11.94,9.52-16.12C779.84,692.78,788.83,690.12,800.47,689.08z"/>
	<path id="path78339" class="st0" d="M650.48,570.1c-0.67,0-1.46,0.22-2.35,0.67l-8.74,4.15c-5.75,2.76-10.97,4.7-15.67,5.82
		c-1.72,0.45-2.58,1.19-2.58,2.24c0,0.67,0.26,1.15,0.78,1.45c0.45,0.22,0.97,0.33,1.57,0.33l5.71-0.33c5-0.3,7.49,4.14,7.49,13.32
		v116.63c0,6.42-0.52,10.49-1.57,12.21c-0.97,1.72-3.66,3.25-8.06,4.59c-1.79,0.52-2.65,1.45-2.57,2.79c0.07,1.19,1,1.8,2.79,1.8
		c0.97,0,2.69-0.12,5.15-0.33c5.6-0.45,9.89-0.68,12.87-0.68c8.66,0,14.33,0.15,17.01,0.45c3.28,0.37,5.33,0.56,6.16,0.56
		c1.64,0,2.47-0.63,2.47-1.9c0-1.49-1.28-2.43-3.81-2.8c-6.64-0.9-10.82-2.46-12.53-4.7c-1.72-2.24-2.57-7.17-2.57-14.78v-43.32
		c0-4.93,2.53-9.36,7.61-13.32c5.07-3.96,10.75-5.94,17.01-5.94c8.13,0,14.63,2.8,19.48,8.39c4.85,5.52,7.27,13.02,7.27,22.5v37.28
		l-0.12,3.47c0,3.36-0.45,5.63-1.35,6.83c-0.9,1.12-3.24,2.39-7.05,3.8c-1.57,0.6-2.32,1.35-2.24,2.24
		c0.07,1.34,1.12,2.01,3.14,2.01c0.52,0,1.68-0.12,3.47-0.33c3.13-0.45,7.99-0.67,14.56-0.67c3.95,0,8.69,0.19,14.21,0.56
		c2.76,0.22,4.59,0.33,5.49,0.33c2.01,0,3.02-0.67,3.02-2.02c0-1.34-1.01-2.17-3.02-2.47c-6.04-0.97-10-2.5-11.86-4.59
		c-1.87-2.09-2.8-5.97-2.8-11.64v-35.48c0-11.72-3.29-21.2-9.85-28.44c-6.49-7.24-15-10.85-25.52-10.85
		c-11.34,0-21.82,5.93-31.45,17.79v-76.78c0-2.54,0.03-4.44,0.1-5.71c0.15-1.34,0.23-2.24,0.23-2.69
		C652.38,570.92,651.74,570.09,650.48,570.1L650.48,570.1z"/>
	<g id="g79166" transform="translate(111.85262,0.99218753)">
		<path id="path78341" class="st0" d="M282.58,447.53c-6.34,11.12-10.56,18.84-12.65,23.17l-9.96,21.38l-11.42,23.51
			c-0.6,1.34-3.73,8.36-9.4,21.04c-2.31,5.22-4.33,9.51-6.04,12.87c-0.97,2.01-1.64,3.43-2.01,4.25c-1.49,3.51-3.1,5.26-4.81,5.26
			c-1.79,0-3.51-1.83-5.15-5.48c-0.3-0.67-1.34-2.72-3.13-6.16l-2.24-4.7l-41.98-90.89l-2.57,55.41
			c-0.22,4.55-0.34,13.66-0.34,27.31c0,13.13,4.63,20.41,13.88,21.83c4.55,0.75,6.83,1.87,6.83,3.36c0,1.72-1.08,2.57-3.25,2.57
			c-1.42,0-2.8-0.07-4.14-0.22c-8.36-0.75-14.81-1.12-19.37-1.12c-5.45,0-10.67,0.34-15.67,1.01c-1.49,0.22-2.65,0.34-3.47,0.34
			c-2.24,0-3.36-0.82-3.36-2.46c0-1.27,0.9-2.09,2.69-2.46c5.45-1.27,9.25-3.81,11.42-7.61c2.16-3.81,3.47-10.3,3.92-19.48
			l1.57-32.46c1.12-23.51,1.68-38.36,1.68-44.55c0-13.28-1.75-23.1-5.26-29.44c-3.51-6.42-9.37-10.37-17.57-11.87
			c-2.24-0.37-3.36-1.31-3.36-2.8c0-1.64,0.93-2.46,2.8-2.46c0.67,0,1.9,0.07,3.69,0.22c1.04,0.15,3.58,0.22,7.61,0.22
			c6.12,0,10-0.07,11.64-0.22c1.72-0.22,3.1-0.34,4.14-0.34c3.21,0,5.9,2.35,8.06,7.05l1.23,2.57l46.68,100.63l5.71,11.53
			c0.82,1.94,1.42,2.91,1.79,2.91c0.45,0,1.01-0.71,1.68-2.13l1.34-3.02l1.01-2.24l52.61-112.61c1.12-2.39,1.94-3.84,2.46-4.37
			c0.6-0.6,1.6-0.9,3.02-0.9c0.6,0,2.24,0.15,4.93,0.45c0.97,0.07,2.2,0.11,3.69,0.11c4.7,0,8.47-0.15,11.31-0.45
			c1.34-0.07,2.43-0.15,3.25-0.22c1.49-0.07,2.24,0.67,2.24,2.24c0,1.42-0.75,2.31-2.24,2.69l-4.81,1.23
			c-3.81,0.9-6.49,3.25-8.06,7.05c-1.49,3.73-2.24,9.89-2.24,18.47l0.67,26.98l2.13,60.78l0.56,14.1c0,5.67,1.04,9.74,3.13,12.2
			c2.09,2.46,5.9,4.1,11.42,4.93c3.96,0.6,5.93,1.6,5.93,3.02c0,1.49-1.38,2.24-4.14,2.24c-0.82,0-1.75-0.04-2.8-0.11l-8.73-0.9
			c-2.91-0.3-6.04-0.45-9.4-0.45c-2.31,0-5.97,0.15-10.97,0.45c-7.76,0.37-12.24,0.56-13.43,0.56c-2.16,0-3.25-0.67-3.25-2.01
			c0-1.19,0.93-2.05,2.8-2.57c4.4-1.19,7.35-3.13,8.84-5.82c1.49-2.69,2.24-7.39,2.24-14.1l-0.45-18.25L282.58,447.53z"/>
		<path id="path78343" class="st0" d="M375.38,466.45c-11.12,0-20.04,3.62-26.75,10.86c-5,5.37-7.5,10.37-7.5,15
			c0,1.79,1.42,3.43,4.25,4.92c2.91,1.49,6.12,2.24,9.63,2.24c1.57,0,2.31-0.67,2.24-2.01c-0.07-1.04-0.34-2.24-0.78-3.58
			c-0.97-3.21-1.45-6.04-1.45-8.51c0-8.36,4.93-12.54,14.78-12.54c7.31,0,13.13,2.24,17.46,6.72c3.21,3.28,4.81,9.22,4.81,17.8
			v13.88c-18.66,2.84-31.9,6.65-39.74,11.42c-7.84,4.7-11.76,11.34-11.76,19.92c0,6.34,2.05,11.42,6.16,15.23
			c4.18,3.73,9.78,5.59,16.79,5.59c9.25,0,19.29-4.1,30.11-12.31c4.92,7.54,10.45,11.31,16.57,11.31c3.28,0,6.64-0.67,10.07-2.02
			c3.43-1.42,5.19-2.8,5.27-4.14c0.07-1.12-0.53-1.64-1.8-1.57c-0.45,0-1.34,0.18-2.69,0.56c-0.67,0.15-1.57,0.23-2.69,0.23
			c-3.95,0-6.79-1.46-8.51-4.37c-1.64-2.98-2.47-7.94-2.47-14.88V492.3c0-8.21-2.8-14.55-8.39-19.03
			C393.4,468.72,385.53,466.45,375.38,466.45L375.38,466.45z M392.05,515.59v22.27c0,5.67-1.31,9.81-3.92,12.43
			c-4.25,4.1-9.51,6.16-15.78,6.16c-5.15,0-9.25-1.49-12.31-4.47c-2.99-3.06-4.48-7.16-4.48-12.31c0-6.57,3.18-11.94,9.52-16.12
			C371.42,519.28,380.41,516.63,392.05,515.59L392.05,515.59z"/>
		<path id="path78345" class="st0" d="M479.76,544.02l18.81-39.74c3.81-8.21,5.71-15.22,5.71-21.04c0-5.15-3.58-8.32-10.75-9.51
			c-2.01-0.3-3.02-1.04-3.02-2.24c0-1.57,0.97-2.35,2.91-2.35c0.97,0,2.35,0.11,4.14,0.34c1.57,0.15,4.29,0.22,8.17,0.22
			c7.69,0,12.8-0.11,15.34-0.34c2.09-0.15,3.47-0.22,4.14-0.22c1.79,0,2.65,0.63,2.57,1.9c-0.08,0.97-1.65,2.05-4.7,3.25
			c-3.06,1.19-5.93,4.63-8.62,10.3l-36.49,76.12c-0.9,1.87-2.13,2.8-3.69,2.8c-1.87,0-3.25-1.04-4.14-3.13l-32.46-73.65
			c-2.98-6.72-7.05-11.04-12.2-12.98c-1.57-0.6-2.35-1.38-2.35-2.35c0-1.57,1.12-2.35,3.36-2.35c0.6,0,1.46,0.07,2.57,0.22
			c3.66,0.45,10.45,0.67,20.37,0.67c4.55,0,7.72-0.07,9.51-0.22c2.46-0.22,4.14-0.34,5.04-0.34c1.72-0.07,2.57,0.67,2.57,2.24
			c0,1.12-1.04,1.79-3.13,2.01c-6.79,0.9-10.19,3.06-10.19,6.49c0,1.87,0.67,4.37,2.01,7.5L479.76,544.02z"/>
	</g>
	<path id="path78347" class="st0" d="M532.65,578.04c-22.98,0-42.09,7.73-57.31,23.18c-15.22,15.37-22.84,34.7-22.84,57.98
		c0,23.28,7.35,42.05,22.05,56.3c14.7,14.25,34.07,21.38,58.1,21.38c20.75,0,39.74-5.49,56.98-16.46c3.21-2.09,4.96-4.1,5.26-6.04
		l0.45-2.02l2.58-13.65l0.44-2.47l0.12-1.23c0-1.49-0.59-2.2-1.79-2.12c-1.05,0.08-2.54,2.09-4.48,6.04
		c-4.18,8.51-11.68,15.75-22.5,21.72c-10.82,5.97-21.82,8.96-33.02,8.96c-19.18,0-34.89-7.39-47.12-22.17
		c-12.16-14.85-18.25-33.96-18.25-57.31c0-20.3,5.48-36.31,16.45-48.02c10.97-11.72,25.97-17.57,45-17.57
		c23.88,0,42.79,12.24,56.75,36.71c1.79,3.21,3.14,4.78,4.03,4.7c0.75-0.08,1.3-0.45,1.67-1.12l0.34-1.13l-0.34-2.79
		c0.15-1.2-6.32-23.72-11.2-27.43l-1.67-1.67l-1.8-0.78l-4.47-2.35C562.87,581.59,548.39,578.04,532.65,578.04L532.65,578.04z"/>
	<g id="g79289" transform="translate(-0.76067705)">
		<path id="rect78455" class="st0" d="M323.06,603.55l24.84,15.55h103.66c3-5.55,6.71-10.73,11.12-15.55H323.06z"/>
		<path id="path78956" class="st0" d="M351.3,649.69l24.84,15.55h66.09c-0.11-1.98-0.18-3.99-0.18-6.03c0-3.25,0.15-6.42,0.45-9.51
			H351.3z"/>
		<path id="path78977" class="st0" d="M370.05,695.83l24.84,15.55h65.27c-4.18-4.74-7.63-9.92-10.36-15.55H370.05z"/>
	</g>
</g>
</svg>
