<?xml version="1.0" encoding="utf-8"?>
<!-- Generator: Adobe Illustrator 24.1.3, SVG Export Plug-In . SVG Version: 6.00 Build 0)  -->
<svg version="1.1" id="Layer_1" xmlns="http://www.w3.org/2000/svg" xmlns:xlink="http://www.w3.org/1999/xlink" x="0px" y="0px"
	 viewBox="0 0 360 432" style="enable-background:new 0 0 360 432;" xml:space="preserve">
<style type="text/css">
	.st0{fill:#07232B;}
</style>
<g id="g82963" transform="matrix(2.3536118,0,0,2.3536118,-574.80438,-265.98087)">
	<path id="path78333" class="st0" d="M385.85,217.89c-2.2,0-4.12,0.94-5.75,2.82c-1.64,1.87-2.46,4.05-2.46,6.55
		c0,2.63,0.79,4.83,2.37,6.62c1.59,1.78,3.56,2.67,5.9,2.67c2.08,0,4.06-0.73,5.93-2.2c1.01-0.79,1.51-1.4,1.51-1.83
		c0-0.24-0.1-0.36-0.3-0.34c-0.1,0.01-0.21,0.06-0.32,0.15c-1.84,1.41-3.54,2.11-5.11,2.11c-1.98,0-3.66-0.83-5.02-2.5
		c-1.35-1.68-2.03-3.75-2.03-6.21l0.02-0.47h8.15l1.46,0.04l1.6,0.02c0.93,0,1.4-0.24,1.4-0.71c0-0.33-0.18-0.91-0.54-1.74
		c-0.36-0.83-0.71-1.49-1.06-1.98C390.16,218.88,388.25,217.89,385.85,217.89L385.85,217.89z M385.07,218.84
		c1.13,0,2.18,0.48,3.15,1.44c0.98,0.96,1.46,2,1.46,3.12c0,0.46-0.57,0.69-1.7,0.69h-7.31c0.19-1.62,0.67-2.9,1.44-3.83
		C382.91,219.31,383.89,218.84,385.07,218.84L385.07,218.84z"/>
	<path id="path78335" class="st0" d="M368.67,217.89c-1.62,0-2.99,0.47-4.09,1.42c-1.11,0.95-1.66,2.11-1.66,3.49
		c0,1.15,0.36,2.13,1.08,2.93c0.72,0.79,1.94,1.56,3.66,2.31l1.9,0.84c1.61,0.72,2.41,1.81,2.41,3.28c0,0.96-0.34,1.75-1.01,2.37
		c-0.66,0.62-1.51,0.93-2.56,0.93c-1.22,0-2.27-0.45-3.15-1.34c-0.86-0.89-1.44-2.13-1.74-3.71c-0.09-0.45-0.26-0.66-0.52-0.65
		c-0.26,0.01-0.42,0.22-0.47,0.6l-0.04,0.65l0.07,2.76l0.02,0.93c0.03,0.33,0.21,0.51,0.54,0.54l0.56,0.06
		c0.09,0,0.29,0.08,0.62,0.24c1.39,0.68,2.69,1.01,3.88,1.01c1.67,0,3.1-0.57,4.29-1.72c1.21-1.16,1.81-2.56,1.81-4.18
		c0-1.32-0.35-2.37-1.06-3.15c-0.69-0.79-1.93-1.54-3.73-2.24c-1.81-0.7-3.01-1.3-3.6-1.79c-0.59-0.49-0.88-1.13-0.88-1.92
		c0-0.75,0.27-1.36,0.82-1.85c0.56-0.49,1.27-0.73,2.13-0.73c2.17,0,3.65,1.09,4.44,3.28c0.14,0.39,0.3,0.58,0.47,0.56
		c0.32-0.01,0.47-0.3,0.47-0.86c0-0.24-0.02-0.52-0.06-0.82l-0.09-0.84c-0.03-0.2-0.04-0.4-0.04-0.6v-0.34
		c0-0.3-0.19-0.52-0.58-0.67l-0.95-0.32C370.78,218.04,369.81,217.89,368.67,217.89L368.67,217.89z"/>
	<path id="path78337" class="st0" d="M350.96,217.89c-2.14,0-3.86,0.7-5.15,2.09c-0.96,1.03-1.44,2-1.44,2.89
		c0,0.34,0.27,0.66,0.82,0.95c0.56,0.29,1.18,0.43,1.85,0.43c0.3,0,0.45-0.13,0.43-0.39c-0.01-0.2-0.06-0.43-0.15-0.69
		c-0.19-0.62-0.28-1.16-0.28-1.64c0-1.61,0.95-2.41,2.84-2.41c1.41,0,2.53,0.43,3.36,1.29c0.62,0.63,0.93,1.77,0.93,3.43v2.67
		c-3.59,0.55-6.14,1.28-7.65,2.2c-1.51,0.91-2.26,2.18-2.26,3.84c0,1.22,0.39,2.2,1.19,2.93c0.8,0.72,1.88,1.08,3.23,1.08
		c1.78,0,3.71-0.79,5.8-2.37c0.95,1.45,2.01,2.18,3.19,2.18c0.63,0,1.28-0.13,1.94-0.39c0.66-0.27,1-0.54,1.01-0.8
		c0.01-0.22-0.1-0.32-0.34-0.3c-0.09,0-0.26,0.04-0.52,0.11c-0.13,0.03-0.3,0.04-0.52,0.04c-0.76,0-1.31-0.28-1.64-0.84
		c-0.32-0.57-0.47-1.53-0.47-2.87v-8.45c0-1.58-0.54-2.8-1.62-3.66C354.43,218.33,352.91,217.89,350.96,217.89L350.96,217.89z
		 M354.17,227.35v4.29c0,1.09-0.25,1.89-0.75,2.39c-0.82,0.79-1.83,1.19-3.04,1.19c-0.99,0-1.78-0.29-2.37-0.86
		c-0.57-0.59-0.86-1.38-0.86-2.37c0-1.26,0.61-2.3,1.83-3.1C350.2,228.06,351.93,227.55,354.17,227.35z"/>
	<path id="path78339" class="st0" d="M325.3,204.44c-0.13,0-0.28,0.04-0.45,0.13l-1.68,0.8c-1.11,0.53-2.11,0.91-3.02,1.12
		c-0.33,0.09-0.5,0.23-0.5,0.43c0,0.13,0.05,0.22,0.15,0.28c0.09,0.04,0.19,0.06,0.3,0.06l1.1-0.06c0.96-0.06,1.44,0.8,1.44,2.56
		v22.45c0,1.24-0.1,2.02-0.3,2.35c-0.19,0.33-0.7,0.62-1.55,0.88c-0.34,0.1-0.51,0.28-0.5,0.54c0.01,0.23,0.19,0.35,0.54,0.35
		c0.19,0,0.52-0.02,0.99-0.06c1.08-0.09,1.9-0.13,2.48-0.13c1.67,0,2.76,0.03,3.28,0.09c0.63,0.07,1.03,0.11,1.19,0.11
		c0.32,0,0.47-0.12,0.47-0.37c0-0.29-0.25-0.47-0.73-0.54c-1.28-0.17-2.08-0.47-2.41-0.91c-0.33-0.43-0.5-1.38-0.5-2.84v-8.34
		c0-0.95,0.49-1.8,1.46-2.56c0.98-0.76,2.07-1.14,3.28-1.14c1.57,0,2.82,0.54,3.75,1.62c0.93,1.06,1.4,2.51,1.4,4.33v7.18
		l-0.02,0.67c0,0.65-0.09,1.08-0.26,1.31c-0.17,0.22-0.62,0.46-1.36,0.73c-0.3,0.12-0.45,0.26-0.43,0.43
		c0.01,0.26,0.22,0.39,0.6,0.39c0.1,0,0.32-0.02,0.67-0.06c0.6-0.09,1.54-0.13,2.8-0.13c0.76,0,1.67,0.04,2.74,0.11
		c0.53,0.04,0.88,0.06,1.06,0.06c0.39,0,0.58-0.13,0.58-0.39c0-0.26-0.19-0.42-0.58-0.47c-1.16-0.19-1.92-0.48-2.28-0.88
		c-0.36-0.4-0.54-1.15-0.54-2.24v-6.83c0-2.26-0.63-4.08-1.9-5.47c-1.25-1.39-2.89-2.09-4.91-2.09c-2.18,0-4.2,1.14-6.05,3.42
		v-14.78c0-0.49,0.01-0.85,0.02-1.1c0.03-0.26,0.04-0.43,0.04-0.52C325.66,204.6,325.54,204.44,325.3,204.44L325.3,204.44z"/>
	<g id="g79166" transform="translate(111.85262,0.99218753)">
		<path id="path78341" class="st0" d="M164.15,180.04c-1.22,2.14-2.03,3.63-2.43,4.46l-1.92,4.12l-2.2,4.53
			c-0.11,0.26-0.72,1.61-1.81,4.05c-0.45,1.01-0.83,1.83-1.16,2.48c-0.19,0.39-0.32,0.66-0.39,0.82c-0.29,0.68-0.6,1.01-0.93,1.01
			c-0.34,0-0.68-0.35-0.99-1.06c-0.06-0.13-0.26-0.52-0.6-1.19l-0.43-0.91l-8.08-17.5l-0.5,10.67c-0.04,0.88-0.06,2.63-0.06,5.26
			c0,2.53,0.89,3.93,2.67,4.2c0.88,0.14,1.31,0.36,1.31,0.65c0,0.33-0.21,0.5-0.62,0.5c-0.27,0-0.54-0.01-0.8-0.04
			c-1.61-0.14-2.85-0.22-3.73-0.22c-1.05,0-2.05,0.06-3.02,0.19c-0.29,0.04-0.51,0.06-0.67,0.06c-0.43,0-0.65-0.16-0.65-0.47
			c0-0.24,0.17-0.4,0.52-0.47c1.05-0.24,1.78-0.73,2.2-1.47c0.42-0.73,0.67-1.98,0.75-3.75l0.3-6.25c0.22-4.53,0.32-7.38,0.32-8.58
			c0-2.56-0.34-4.45-1.01-5.67c-0.68-1.24-1.8-2-3.38-2.28c-0.43-0.07-0.65-0.25-0.65-0.54c0-0.32,0.18-0.47,0.54-0.47
			c0.13,0,0.37,0.01,0.71,0.04c0.2,0.03,0.69,0.04,1.47,0.04c1.18,0,1.93-0.01,2.24-0.04c0.33-0.04,0.6-0.06,0.8-0.06
			c0.62,0,1.13,0.45,1.55,1.36l0.24,0.5l8.99,19.37l1.1,2.22c0.16,0.37,0.27,0.56,0.34,0.56c0.09,0,0.19-0.14,0.32-0.41l0.26-0.58
			l0.19-0.43l10.13-21.68c0.22-0.46,0.37-0.74,0.47-0.84c0.11-0.11,0.31-0.17,0.58-0.17c0.11,0,0.43,0.03,0.95,0.09
			c0.19,0.01,0.42,0.02,0.71,0.02c0.91,0,1.63-0.03,2.18-0.09c0.26-0.01,0.47-0.03,0.62-0.04c0.29-0.01,0.43,0.13,0.43,0.43
			c0,0.27-0.14,0.45-0.43,0.52l-0.93,0.24c-0.73,0.17-1.25,0.62-1.55,1.36c-0.29,0.72-0.43,1.9-0.43,3.56l0.13,5.19l0.41,11.7
			l0.11,2.72c0,1.09,0.2,1.87,0.6,2.35c0.4,0.47,1.13,0.79,2.2,0.95c0.76,0.11,1.14,0.31,1.14,0.58c0,0.29-0.27,0.43-0.8,0.43
			c-0.16,0-0.34-0.01-0.54-0.02l-1.68-0.17c-0.56-0.06-1.16-0.09-1.81-0.09c-0.45,0-1.15,0.03-2.11,0.09
			c-1.49,0.07-2.36,0.11-2.59,0.11c-0.42,0-0.62-0.13-0.62-0.39c0-0.23,0.18-0.4,0.54-0.5c0.85-0.23,1.42-0.6,1.7-1.12
			c0.29-0.52,0.43-1.42,0.43-2.72l-0.09-3.51L164.15,180.04z"/>
		<path id="path78343" class="st0" d="M182.01,183.69c-2.14,0-3.86,0.7-5.15,2.09c-0.96,1.03-1.44,2-1.44,2.89
			c0,0.34,0.27,0.66,0.82,0.95c0.56,0.29,1.18,0.43,1.85,0.43c0.3,0,0.45-0.13,0.43-0.39c-0.01-0.2-0.06-0.43-0.15-0.69
			c-0.19-0.62-0.28-1.16-0.28-1.64c0-1.61,0.95-2.41,2.84-2.41c1.41,0,2.53,0.43,3.36,1.29c0.62,0.63,0.93,1.77,0.93,3.43v2.67
			c-3.59,0.55-6.14,1.28-7.65,2.2c-1.51,0.91-2.26,2.18-2.26,3.83c0,1.22,0.39,2.2,1.19,2.93c0.8,0.72,1.88,1.08,3.23,1.08
			c1.78,0,3.71-0.79,5.8-2.37c0.95,1.45,2.01,2.18,3.19,2.18c0.63,0,1.28-0.13,1.94-0.39c0.66-0.27,1-0.54,1.01-0.8
			c0.01-0.22-0.1-0.32-0.35-0.3c-0.09,0-0.26,0.04-0.52,0.11c-0.13,0.03-0.3,0.04-0.52,0.04c-0.76,0-1.31-0.28-1.64-0.84
			c-0.32-0.57-0.47-1.53-0.47-2.87v-8.45c0-1.58-0.54-2.8-1.62-3.66C185.48,184.12,183.97,183.69,182.01,183.69L182.01,183.69z
			 M185.23,193.15v4.29c0,1.09-0.25,1.89-0.75,2.39c-0.82,0.79-1.83,1.19-3.04,1.19c-0.99,0-1.78-0.29-2.37-0.86
			c-0.57-0.59-0.86-1.38-0.86-2.37c0-1.26,0.61-2.3,1.83-3.1C181.25,193.86,182.98,193.35,185.23,193.15L185.23,193.15z"/>
		<path id="path78345" class="st0" d="M202.11,198.62l3.62-7.65c0.73-1.58,1.1-2.93,1.1-4.05c0-0.99-0.69-1.6-2.07-1.83
			c-0.39-0.06-0.58-0.2-0.58-0.43c0-0.3,0.19-0.45,0.56-0.45c0.19,0,0.45,0.02,0.8,0.06c0.3,0.03,0.83,0.04,1.57,0.04
			c1.48,0,2.46-0.02,2.95-0.06c0.4-0.03,0.67-0.04,0.8-0.04c0.34,0,0.51,0.12,0.5,0.37c-0.02,0.19-0.32,0.4-0.91,0.62
			c-0.59,0.23-1.14,0.89-1.66,1.98l-7.02,14.65c-0.17,0.36-0.41,0.54-0.71,0.54c-0.36,0-0.62-0.2-0.8-0.6l-6.25-14.18
			c-0.57-1.29-1.36-2.13-2.35-2.5c-0.3-0.11-0.45-0.27-0.45-0.45c0-0.3,0.22-0.45,0.65-0.45c0.11,0,0.28,0.01,0.5,0.04
			c0.7,0.09,2.01,0.13,3.92,0.13c0.88,0,1.49-0.01,1.83-0.04c0.47-0.04,0.8-0.06,0.97-0.06c0.33-0.01,0.5,0.13,0.5,0.43
			c0,0.22-0.2,0.34-0.6,0.39c-1.31,0.17-1.96,0.59-1.96,1.25c0,0.36,0.13,0.84,0.39,1.44L202.11,198.62z"/>
	</g>
	<path id="path78347" class="st0" d="M302.61,205.97c-4.42,0-8.1,1.49-11.03,4.46c-2.93,2.96-4.4,6.68-4.4,11.16
		s1.42,8.09,4.25,10.84c2.83,2.74,6.56,4.12,11.18,4.12c3.99,0,7.65-1.06,10.97-3.17c0.62-0.4,0.95-0.79,1.01-1.16l0.09-0.39
		l0.5-2.63l0.09-0.47l0.02-0.24c0-0.29-0.11-0.42-0.34-0.41c-0.2,0.01-0.49,0.4-0.86,1.16c-0.8,1.64-2.25,3.03-4.33,4.18
		c-2.08,1.15-4.2,1.72-6.36,1.72c-3.69,0-6.72-1.42-9.07-4.27c-2.34-2.86-3.51-6.54-3.51-11.03c0-3.91,1.06-6.99,3.17-9.24
		c2.11-2.26,5-3.38,8.66-3.38c4.6,0,8.24,2.36,10.92,7.07c0.34,0.62,0.6,0.92,0.78,0.91c0.14-0.01,0.25-0.09,0.32-0.22l0.07-0.22
		l-0.07-0.54c0.03-0.23-1.22-4.57-2.16-5.28l-0.32-0.32l-0.35-0.15l-0.86-0.45C308.43,206.65,305.64,205.97,302.61,205.97
		L302.61,205.97z"/>
	<g id="g79289" transform="translate(-0.76067705)">
		<path id="rect78455" class="st0" d="M262.88,210.88l4.78,2.99h19.96c0.58-1.07,1.29-2.07,2.14-2.99H262.88z"/>
		<path id="path78956" class="st0" d="M268.31,219.76l4.78,2.99h12.72c-0.02-0.38-0.03-0.77-0.03-1.16c0-0.63,0.03-1.24,0.09-1.83
			H268.31z"/>
		<path id="path78977" class="st0" d="M271.92,228.65l4.78,2.99h12.57c-0.8-0.91-1.47-1.91-2-2.99H271.92z"/>
	</g>
</g>
</svg>
